ply
format ascii 1.0
element vertex 19
property float x
property float y
property float z
property uchar red
property uchar green
property uchar blue
end_header
-0.26627782 -0.56181645 2.67927694 11 12 14
-0.26627782 -0.56181645 2.67927694 11 12 14
-0.21041094 -0.43251252 2.57027984 104 94 82
-0.21029791 -0.53397077 2.69313073 165 165 155
-0.13665213 0.03907347 1.84064043 230 229 224
-0.19866717 -0.48554698 2.86056256 70 63 46
-0.16502818 -0.41774842 2.55066800 82 79 147
-0.06780826 0.00438756 1.91623569 40 26 20
0.00250411 0.16374697 1.86050427 135 107 90
0.02416151 0.20329937 1.87474394 31 22 15
0.02567301 0.20438017 1.87218165 29 22 14
0.03683612 0.12108435 1.87098575 93 74 62
0.04925783 0.20173322 1.88904500 136 137 131
0.04937081 0.20200489 1.88893437 136 137 131
0.05467778 0.19726159 1.89102137 25 20 14
0.12098673 0.08471777 1.88155997 136 102 82
0.19928737 0.07187648 1.93168962 40 28 25
0.29466033 0.04609077 2.06493235 104 82 61
0.31793505 0.07127402 2.06732488 36 26 17
