ply
format ascii 1.0
element vertex 1407
property float x
property float y
property float z
property uchar red
property uchar green
property uchar blue
end_header
1.81225598 4.70256758 22.91975021 241 246 250
1.69360316 -0.08286238 21.49792671 162 165 170
1.68141878 5.83079958 21.53653908 167 160 156
6.17777300 5.96170902 19.92231369 18 6 5
1.72517896 -0.05889706 21.49317551 75 79 82
6.17777300 5.96170902 19.92231369 18 6 5
1.66780174 -0.03237048 21.46110344 168 170 173
9.23468399 2.47698975 29.82812691 187 189 193
1.48738492 7.09259176 18.48397636 158 149 138
6.64786243 5.53604078 21.52108955 173 157 149
1.48738492 7.09259176 18.48397636 158 149 138
5.66965961 7.14497089 18.37174797 254 254 246
1.76732314 4.64197302 23.02759361 216 222 232
1.76732314 4.64197302 23.02759361 216 222 232
3.18855500 -1.67298031 38.65243530 235 228 221
1.52774549 7.10668564 18.49173164 21 16 26
1.52774549 7.10668564 18.49173164 21 16 26
1.53006375 7.12674379 18.43568230 178 172 163
5.66075468 7.18061399 18.38006783 4 1 6
1.72687984 4.91546965 22.67294312 197 197 201
1.41721237 6.59733248 18.62853050 28 18 23
1.63664877 -0.04996683 21.58316422 163 169 179
1.65392590 6.32647038 19.68911743 183 175 170
1.76217353 5.96248913 20.95170212 234 227 227
1.55496681 7.13791275 18.41028404 45 38 42
1.50445759 6.26987314 19.91921806 76 61 66
1.74298680 4.59579182 23.08174706 235 239 243
6.07268906 6.02890396 19.80575943 225 209 188
1.66813612 6.35794592 19.65184593 208 196 196
6.12299919 5.96008301 20.04370117 35 21 15
1.59908307 -0.00852074 21.40140533 69 70 73
1.94486129 4.86683559 22.90733910 206 205 207
2.07955360 0.58232641 24.48988342 76 70 65
1.74096739 4.51363277 23.41422844 178 176 179
5.55924940 7.17790508 18.23269653 116 116 105
5.55924940 7.17790508 18.23269653 116 116 105
1.69839668 6.39229441 19.63051224 207 196 194
1.70806181 6.35181141 19.66514206 68 57 57
1.57978249 -0.54915941 21.54278183 191 195 205
1.90748084 -0.11863662 21.74856949 198 200 209
6.55484200 5.53904104 21.50676155 135 126 129
9.15393829 2.93942428 30.06050873 63 63 65
8.46890831 3.59190297 27.82332420 196 180 173
1.83808637 5.97960043 20.94664001 156 146 144
1.44752312 6.24608660 19.92440605 223 203 193
1.68170428 4.55849361 23.15852547 53 51 55
1.46398652 6.18416166 20.21517181 184 176 173
5.78728437 6.26846123 19.02434731 221 223 225
8.99423504 3.08272338 29.58650398 26 21 22
-13.75939178 -6.52979469 48.56184387 25 31 34
-14.10614777 -6.92169809 49.79308319 35 38 42
3.40621138 -1.77666891 38.73578262 212 206 199
5.76943731 6.29128981 19.01102066 88 88 100
-13.86399841 -6.80265045 48.99464035 33 37 45
5.76943731 6.29128981 19.01102066 88 88 100
-13.78540134 -6.90978289 48.77872467 174 168 157
-13.78540134 -6.90978289 48.77872467 174 168 157
1.62548912 4.72834826 22.82905960 86 88 92
-13.69882488 -6.92419052 48.80794907 29 28 25
-13.69882488 -6.92419052 48.80794907 29 28 25
1.61661065 4.88526535 22.70927620 60 61 68
1.75397730 6.35648060 19.60384178 162 152 152
1.63347340 4.57381964 23.16153717 60 60 62
-13.60908031 -6.58560705 48.71957779 44 48 50
-13.63053131 -6.94111633 48.87343216 144 138 122
-13.63053131 -6.94111633 48.87343216 144 138 122
2.07667279 4.84496212 23.01204109 189 191 195
1.61716747 4.52281094 23.08682442 251 252 254
1.41085267 6.16939354 20.32696533 182 172 171
5.87780190 6.16792154 19.42947006 158 162 166
5.87780190 6.16792154 19.42947006 158 162 166
7.54518509 4.38929749 24.94476318 33 22 24
1.59493136 4.57890511 23.08421516 58 57 65
-13.49561501 -7.05113029 48.73232651 19 17 11
5.96669006 6.07931519 19.75220680 229 233 234
5.95839071 6.04395914 19.73020554 49 46 50
6.00926208 6.01056814 19.92551231 171 153 137
1.90352333 6.01115084 20.75248718 191 181 182
1.45498049 0.00504859 21.30575562 143 148 154
1.45034182 -0.51946932 21.38754654 173 175 186
1.28198481 7.46285295 18.99216080 84 73 78
2.57563663 -1.55830896 38.16226578 237 233 227
5.98674345 5.99080467 19.93705940 55 40 33
1.78587520 6.42933178 19.39017868 202 192 188
5.98674345 5.99080467 19.93705940 55 40 33
2.34064221 3.64900970 25.40810204 167 167 180
1.35540402 6.18839693 20.21741867 66 56 64
1.54304171 4.58866787 23.02927780 56 51 52
5.51133013 6.45456028 18.36789703 215 215 216
5.51133013 6.45456028 18.36789703 215 215 216
8.95968246 1.43626928 29.87693214 198 193 190
5.55358458 6.42097998 18.53366852 208 212 209
5.95243883 6.01662445 19.86865616 35 19 9
7.54330969 4.45491886 25.18962288 150 136 133
1.75194156 6.49086428 18.97096252 254 252 254
5.39787865 7.22871923 18.06905556 172 161 145
-7.83022594 4.87101841 29.09756851 158 157 162
-8.55670643 4.24311209 31.98426247 10 10 14
-8.55670643 4.24311209 31.98426247 10 10 14
1.80433583 6.37513971 19.47028160 210 200 197
1.51157737 4.66662741 22.84756470 223 223 223
7.50135469 4.48377037 25.14550591 31 22 27
7.50135469 4.48377037 25.14550591 31 22 27
1.51157737 4.66662741 22.84756470 223 223 223
-9.78157616 3.15055704 36.89646912 253 254 255
8.77312851 3.10829496 29.42081070 250 242 241
2.53787708 -1.52665734 38.93476105 37 25 6
8.54915237 3.37288761 28.72552299 255 250 249
5.78883648 6.16790295 19.45216560 224 232 233
1.23833859 7.14279366 19.22150230 52 42 43
1.82826245 6.42049074 19.36051369 58 48 47
2.39741611 4.79388571 25.30782509 49 47 44
8.59290695 3.29542685 29.09285927 38 35 34
5.64910984 6.25458384 19.13903809 165 165 168
5.64910984 6.25458384 19.13903809 165 165 168
1.81583071 6.52467394 19.05630684 59 47 54
1.82979929 6.47568989 19.13483429 202 194 194
8.54633713 3.34071660 29.00001335 255 251 252
8.60573006 3.36725092 29.22689056 250 244 245
8.63576317 3.21080351 29.34446144 49 50 52
5.65119410 6.23094654 19.22364998 252 254 254
7.43305779 4.45737648 25.29172897 26 19 24
2.06995678 -0.07484027 21.56423378 203 208 220
1.86423659 6.37939548 19.41016960 61 50 54
1.77511954 6.61822367 18.37897491 255 250 254
1.38292587 4.72394562 22.67461777 64 66 68
7.67248583 4.17216110 26.30534935 16 4 5
1.25369036 6.08917665 20.57624626 230 224 223
1.29890430 -0.50106317 21.32857513 198 199 203
1.16058421 7.36011553 19.16502762 179 174 169
1.16058421 7.36011553 19.16502762 179 174 169
1.16058421 7.36011553 19.16502762 179 174 169
5.88369560 5.96582270 20.21818542 37 27 40
5.88369560 5.96582270 20.21818542 37 27 40
1.87601912 6.39747190 19.24771500 220 210 210
1.75383830 7.13623190 17.96792793 35 18 23
1.26494169 0.25437799 21.11178017 173 171 174
1.84745002 6.50552464 18.84484482 251 244 251
1.75478542 7.04167128 17.86717224 150 147 148
5.47483301 6.30605364 18.92645645 60 59 68
6.67528486 5.10233641 23.08165932 217 212 215
2.04266238 6.01745176 20.77791214 53 43 41
1.34129524 2.69778252 22.54514885 90 87 88
1.26666117 -0.45889071 21.31746101 29 30 35
8.60131836 1.96925521 29.79637337 181 181 184
8.50898266 2.26938939 29.54203224 52 51 54
1.30456626 0.99542201 22.13260460 216 219 236
1.30456626 0.99542201 22.13260460 216 219 236
2.41256666 5.15277433 24.28591347 160 156 154
1.30931652 5.00397301 22.44286156 117 117 116
-8.09784985 3.91228724 33.04563141 14 16 16
1.13243794 7.37326908 19.41933250 223 218 216
2.13023591 5.85446501 21.34872437 202 198 201
2.13023591 5.85446501 21.34872437 202 198 201
1.91454875 6.48433018 19.10318756 201 193 192
5.61523485 6.22686434 19.56779480 45 39 39
1.92585766 6.45438433 19.17503357 73 63 67
2.54604125 4.17227364 25.33389664 67 66 67
2.54604125 4.17227364 25.33389664 67 66 67
3.92348051 -1.75412512 38.90993118 62 55 40
1.46814299 -1.87191832 25.70133972 210 208 195
1.27565277 2.33590817 22.50095940 2 2 2
1.27789891 2.43287563 22.55204582 2 3 7
1.93876255 6.51529694 19.08715248 75 64 67
5.57166290 6.19899464 19.53883743 254 253 252
1.25635529 5.06715536 22.38554382 214 213 218
1.17007160 6.00281811 20.95401001 75 62 72
1.23157609 5.00836182 22.34185219 75 75 75
2.13798738 5.98134995 20.89445114 247 238 240
6.56029844 5.10542774 23.15088654 210 205 209
6.56029844 5.10542774 23.15088654 210 205 209
-7.02869606 4.75844049 30.14365387 29 25 26
-7.02869606 4.75844049 30.14365387 29 25 26
-7.02668285 4.85080004 30.16398811 19 15 23
1.06649387 7.31354332 19.47351265 198 196 193
8.08244610 3.57551408 28.57621574 204 201 201
1.24313951 4.58594751 22.88542557 203 204 204
1.21498573 2.22178459 22.45055771 228 233 252
8.26748276 1.32071745 29.24533653 85 73 64
1.95383835 6.51431131 18.99493980 219 209 207
1.96848798 6.48695898 19.13675499 88 79 79
-6.98608541 4.75995398 30.33017731 200 196 204
6.04788065 5.64602518 21.41674614 210 210 215
6.04788065 5.64602518 21.41674614 210 210 215
6.69251251 4.96879721 23.70048141 36 25 29
8.27434540 3.25814462 29.33709335 230 219 213
1.13944066 0.06862924 21.11429977 139 145 151
8.16217613 3.36008453 28.94620323 234 223 217
6.00659418 5.65370893 21.33191299 71 69 81
1.22682643 4.66569567 22.77462578 54 52 53
1.19605875 1.91019106 22.20084763 231 236 253
2.63489699 3.94699526 25.53375435 109 108 111
6.09356976 5.54483461 21.66029167 247 250 251
1.19798160 5.61107826 22.27756882 250 249 248
6.09356976 5.54483461 21.66029167 247 250 251
1.19798160 5.61107826 22.27756882 250 249 248
2.38774061 5.42426300 23.09632111 19 15 17
1.23060167 4.25927258 22.92436028 117 116 113
8.01101971 3.47295833 28.51582527 251 246 244
-8.36588669 3.15789866 36.72821045 115 111 106
1.20639837 2.41581774 22.63633728 4 4 6
8.02468967 3.57592034 28.62106705 169 162 163
8.02468967 3.57592034 28.62106705 169 162 163
6.04763460 5.60608196 21.57650375 74 71 78
1.04129434 7.37146902 19.55847549 144 139 141
5.87347841 5.75229025 20.96153831 22 14 17
1.09286368 6.05051851 20.58737183 105 94 100
2.53351545 5.03989601 24.41153717 223 219 218
5.99401045 5.60422039 21.42300987 238 238 241
7.95209837 3.50860429 28.43060112 28 20 20
-8.44605923 3.14660716 37.49958420 68 68 68
1.09430933 6.04832315 20.69217110 200 188 191
8.22894096 1.99325454 29.49820900 80 82 85
1.20525610 4.28045368 22.80582237 240 241 243
1.84798372 6.81999445 17.71432686 245 238 238
2.66654205 4.03155613 25.54888725 76 75 75
7.38930702 4.12911558 26.52200317 17 7 15
7.92909288 3.50099993 28.51347923 249 241 237
5.83689451 5.76743889 21.01512146 219 213 215
7.84672451 3.60898304 28.27972794 83 78 81
1.14430940 1.61452377 22.11081696 224 229 248
1.14430940 1.61452377 22.11081696 224 229 248
5.30789375 6.21994686 19.17587852 215 191 160
1.06664193 6.01464128 20.70709610 219 208 202
5.94379759 5.60857964 21.47843933 241 242 248
1.17374408 4.26228380 22.82310867 213 214 219
1.17374408 4.26228380 22.82310867 213 214 219
1.07425904 0.27976829 20.97434235 161 159 166
1.07425904 0.27976829 20.97434235 161 159 166
6.39866590 5.11791801 23.19419098 71 68 74
-6.67324686 4.66263914 30.55723000 214 214 219
2.27648568 5.81141996 21.61442757 28 23 30
2.27648568 5.81141996 21.61442757 28 23 30
8.11741543 2.51854706 29.44532967 60 61 66
2.01982021 6.42847967 19.14525223 20 12 17
5.61374807 5.95699072 20.37383080 176 164 162
7.85242271 3.59132576 28.50919724 11 2 3
1.12200153 1.81600845 22.24244308 1 2 6
2.01982021 6.42847967 19.14525223 20 12 17
2.41218638 5.49083424 22.82761955 155 153 156
8.05851555 1.65030515 29.32930756 215 213 211
8.05851555 1.65030515 29.32930756 215 213 211
2.71083474 3.98887277 25.60165596 225 225 227
5.31914377 6.20372725 19.40941048 32 21 31
2.02921271 6.51154518 19.04834175 191 181 172
1.12710547 4.68112326 22.65034866 66 64 67
2.02944851 6.47203112 19.04778671 49 38 51
2.02944851 6.47203112 19.04778671 49 38 51
11.89116764 -2.97995782 43.45158005 54 56 65
2.16274261 6.16613960 20.23376083 208 198 199
8.04115772 1.80395770 29.42959976 209 206 203
6.24115515 5.19972944 22.85500145 31 24 28
2.30024147 5.81766939 21.51922798 171 162 169
2.65893221 0.34401155 24.62162781 139 138 143
4.73457909 6.81416225 17.39032173 65 64 77
4.73457909 6.81416225 17.39032173 65 64 77
1.07567894 1.78800690 22.19140244 234 235 246
1.07567894 1.78800690 22.19140244 234 235 246
6.23292875 5.20347357 22.92203522 13 4 6
2.65893221 0.34401155 24.62162781 139 138 143
2.75002551 4.68597698 25.45535088 35 34 30
4.85834169 6.63147354 17.89042854 254 254 252
4.85834169 6.63147354 17.89042854 254 254 252
2.06159449 6.49683237 18.99140358 48 34 44
5.75444269 5.72300577 21.23311424 201 196 200
5.75100374 5.68734217 21.23284531 44 37 47
7.83275843 3.23619342 28.99581337 61 53 50
0.98616534 0.08836176 21.08219910 159 162 167
2.85077214 4.09532166 25.57804489 55 54 58
2.75888276 4.96550941 24.74675751 86 83 80
1.03290927 4.71223497 22.60833931 69 69 70
6.28179693 5.06061840 23.50653839 59 56 60
6.34726095 4.97770882 23.76247406 227 225 230
7.52918673 3.69474530 28.19746971 235 233 234
7.52918673 3.69474530 28.19746971 235 233 234
2.83491564 4.80398560 24.94749451 228 218 206
2.83491564 4.80398560 24.94749451 228 218 206
2.13945651 6.54361486 18.80356216 44 30 39
2.12060571 6.58513021 18.61902618 220 209 206
2.14402676 6.56783533 18.75002098 163 154 154
7.47520304 3.74915028 28.06364632 38 30 30
6.15290260 5.17161798 23.11440849 33 22 17
5.05702543 6.34440660 19.00469017 50 37 37
6.58369827 4.66183424 24.76076698 182 178 184
2.92633438 1.09136593 25.45030785 54 48 44
2.12400818 6.62635183 18.47326279 219 206 202
0.89879161 5.94402170 21.08585358 207 196 192
0.89879161 5.94402170 21.08585358 207 196 192
0.94114012 1.66074085 22.09021950 3 3 5
2.24306083 6.36292601 19.36675262 163 156 160
2.16584635 6.59486628 18.68185234 68 59 64
6.15098381 5.12320232 23.16791344 230 229 236
7.46578932 3.71224570 28.13923645 203 201 205
7.46578932 3.71224570 28.13923645 203 201 205
5.27105570 6.10001516 19.90567780 234 221 217
2.98559737 4.63320589 25.48474121 30 25 21
7.61712265 3.55529690 28.80105591 227 216 210
2.60913944 5.60284376 22.25644875 58 34 28
0.89470595 1.75198054 22.03065491 224 229 247
0.87759584 1.50363922 21.99816322 4 4 6
6.28822470 5.20344162 23.83358383 210 206 215
0.87496424 4.98714590 22.41270256 217 217 218
4.62226105 6.78553057 17.53571510 182 182 181
2.65733314 5.53537416 22.50057030 209 187 173
-5.53401566 5.93617249 29.06320572 147 141 151
-5.53401566 5.93617249 29.06320572 147 141 151
7.39717436 3.64702010 28.11795616 248 243 239
7.36584616 3.80799627 28.00497246 53 49 48
0.85995477 4.74672556 22.43892288 108 109 107
6.07134867 5.13256121 23.19135475 36 25 22
7.36911631 3.71030211 28.16312599 3 1 2
2.63992119 5.55370283 22.19654846 208 181 165
4.96020031 6.39196873 18.96771812 54 43 41
0.85356700 4.70128632 22.49238396 250 249 252
2.95540476 5.04413128 24.78188133 22 16 16
6.33398104 4.84439325 24.23975563 158 152 156
0.75455797 6.20179939 20.12543106 185 170 170
-5.46054316 5.90343285 29.07796669 180 176 187
-5.46054316 5.90343285 29.07796669 180 176 187
0.82711929 2.63964987 22.14513779 230 236 252
2.96339893 4.93475962 24.80105209 228 221 219
3.00223470 0.59898508 25.10875511 52 51 50
7.26777411 3.80819488 27.91837502 43 36 36
3.08260608 4.14645576 25.69861412 175 176 180
7.33499336 3.69121480 28.21482086 214 208 207
6.93401146 4.13604403 26.68643951 171 158 165
6.93401146 4.13604403 26.68643951 171 158 165
0.80884773 1.43659222 21.89789391 221 226 238
2.39850116 6.23286009 19.95476151 233 222 219
6.05307198 5.13392305 23.36187744 32 24 27
0.76666546 -0.40439987 21.05124474 152 155 161
0.75673103 0.14736760 20.81245995 159 164 170
2.22073150 6.63527918 18.36821175 208 199 194
7.23299503 3.77336550 27.96179581 233 231 236
7.23299503 3.77336550 27.96179581 233 231 236
7.23424911 3.83442760 27.98880959 37 23 18
3.11984611 4.61233139 25.65851402 81 70 62
2.80388474 5.41405296 23.04965591 167 162 166
0.76174557 5.74327469 21.97896004 203 191 184
2.43331575 6.22824335 19.95749092 35 25 34
6.04033852 5.08619213 23.44401932 227 226 229
0.75704080 1.66536140 21.86416054 3 4 7
0.76109678 5.75961065 22.04409027 203 191 184
0.76109678 5.75961065 22.04409027 203 191 184
0.68893772 6.76567268 20.34131050 196 186 184
5.22680759 5.96550465 20.35902023 249 245 248
0.73846489 1.50669253 21.79870415 4 4 6
2.26255250 6.61492968 18.44364548 204 194 197
0.71237683 -0.76570886 21.31744385 242 245 248
3.07709646 4.84451008 24.85741234 133 128 127
2.40431499 6.34147215 19.41443062 218 206 207
0.72038239 1.33847094 21.78387833 4 4 6
3.12856364 0.35523161 24.93148613 46 45 50
0.68230242 -0.74460799 21.24028206 235 235 237
0.70650589 2.40683770 22.00123978 236 239 245
0.70650589 2.40683770 22.00123978 236 239 245
-5.67284250 -4.62892914 31.60204697 63 63 60
0.66188627 -0.38608813 20.83444214 138 137 142
0.67625540 -0.81090450 21.33036804 113 115 113
0.67625540 -0.81090450 21.33036804 113 115 113
0.69357181 2.67743039 22.13930702 2 2 5
0.68177521 1.81463587 21.80615997 224 229 247
2.31842160 6.70053482 18.24686623 69 57 66
-5.60793400 -4.80802584 31.57709503 245 243 232
2.31842160 6.70053482 18.24686623 69 57 66
2.31842160 6.70053482 18.24686623 69 57 66
-5.59973621 -3.95552325 31.62736130 129 125 118
5.78672791 5.37400389 22.68291855 22 16 20
0.68285334 4.78732538 22.24651718 82 83 80
0.68285334 4.78732538 22.24651718 82 83 80
2.51973772 6.28387690 19.70272064 190 183 176
0.65292245 1.43944991 21.85159492 227 230 245
5.78935194 5.32551575 22.71142387 203 202 204
3.19021773 4.92389202 24.83230019 89 81 81
0.64365286 -1.74794674 22.05953407 235 231 224
2.83749056 5.65724468 22.03352356 156 142 139
5.75313616 5.39459038 22.61227989 223 222 227
0.64393967 4.74569893 22.27598381 245 247 250
0.64393967 4.74569893 22.27598381 245 247 250
4.37309074 6.87104940 17.20218468 208 207 206
0.62311530 1.47423911 21.58002090 220 225 241
3.31107903 0.49223870 25.61078644 182 179 174
7.30539894 3.44727755 28.78387642 69 63 60
0.61996204 1.48373640 21.77979660 221 224 241
2.54074049 6.30221796 19.63076210 212 199 195
2.34762049 6.72778797 18.11933899 221 212 205
0.57592148 6.57625532 20.57145309 69 62 58
0.60764670 5.76524210 21.76065826 206 191 184
2.54435563 6.34705019 19.57118034 223 213 211
2.37670374 6.69901228 18.25899506 44 32 39
0.60385185 5.16338778 21.75417328 112 112 112
0.59498996 1.59951818 21.76286697 2 2 2
0.59614223 2.51678705 21.84626770 4 4 6
5.74514961 5.29919767 22.70199394 42 37 45
3.37508345 4.54002857 25.89913940 55 44 43
0.57978201 -0.81120205 21.42068481 242 243 247
0.57978201 -0.81120205 21.42068481 242 243 247
2.98951936 5.49095249 22.83922958 231 229 240
2.38219976 6.70895100 18.12945938 214 205 200
2.38219976 6.70895100 18.12945938 214 205 200
0.55395079 -0.70293158 21.19178391 42 43 48
2.48939395 6.44515228 18.89508247 243 235 243
-5.40914536 -2.61031079 31.48262596 93 90 83
-5.41861534 -2.84417152 31.57189178 245 242 233
5.88597298 5.14762020 23.34266090 249 248 251
5.88597298 5.14762020 23.34266090 249 248 251
-5.37817192 -2.06819415 31.50920296 58 56 52
-5.36022329 -1.92840409 31.50081825 86 83 76
-5.36022329 -1.92840409 31.50081825 86 83 76
0.55961406 2.73914361 22.04364777 236 239 255
3.41890383 4.56594849 25.85941505 243 233 224
0.55738026 4.79275179 22.19852066 232 233 238
3.46955967 3.68789268 26.19637108 60 60 62
6.95783234 3.91608453 27.71224403 40 31 37
3.33678222 4.76152277 25.17904663 246 240 234
7.16514397 2.97315693 28.57476044 218 221 231
0.50551844 7.21500158 20.88510323 205 198 199
3.49616957 0.60516506 26.34679604 214 208 208
4.37187004 6.80040121 17.46054077 192 190 189
6.37437820 4.56268978 25.45912552 115 113 117
0.50346297 4.82656527 22.05576515 92 90 91
0.50673348 4.40257406 22.28316689 200 200 201
4.70100498 6.41018724 18.82877731 222 207 192
-5.34003687 -4.69628716 31.87994576 139 136 131
0.46754453 0.28579882 20.57501984 30 28 39
-5.30468655 -2.66124892 31.69132042 244 241 234
4.93916750 6.14905977 19.80021286 243 242 244
3.50265956 3.71569085 26.19477272 173 171 173
-5.27686024 -0.76784706 31.64596367 97 93 86
0.45797032 0.20802730 20.57924461 74 79 87
2.60014629 6.39112091 19.36442566 60 49 53
3.01343489 5.61543941 22.33634567 170 164 166
4.94892311 6.13197231 19.87185478 80 75 78
3.40459228 4.73555660 25.19166946 237 230 226
0.47463226 4.85292053 22.12316322 98 96 93
0.47463226 4.85292053 22.12316322 98 96 93
0.44001216 0.24026038 20.52902603 197 196 203
0.44001216 0.24026038 20.52902603 197 196 203
6.92159653 3.84652972 27.86876678 4 0 0
7.11064386 2.90137672 28.63576508 230 228 226
2.54548192 6.52252913 18.80463791 225 211 217
0.46841088 4.74822569 22.14990807 218 219 220
-5.22182274 -0.71133155 31.55822182 254 253 247
0.45485488 5.80109692 21.66932297 215 209 213
0.41926435 7.50979424 20.09779930 79 53 60
5.43073320 5.57780933 21.97439194 223 221 230
5.64880753 5.23751259 22.86565590 208 192 184
2.43735266 6.76127529 17.93839645 201 188 187
0.42184600 0.40475178 20.51010704 174 176 181
0.42060119 0.45993266 20.51431847 194 194 203
0.42060119 0.45993266 20.51431847 194 194 203
0.44277596 2.04333568 21.77427864 229 234 253
2.38907170 6.88418722 17.43850708 213 206 202
7.04888964 3.53435826 28.59986496 65 62 57
-5.18474483 -2.93606973 31.70707321 127 127 119
4.63456202 6.47909117 18.80802155 169 159 161
2.71372914 6.25661230 19.76771736 172 164 166
2.97727585 5.78339481 21.66300583 133 129 126
7.05282211 3.60988498 28.66502953 225 214 210
4.54077291 6.52634716 18.47828484 174 170 176
3.58764195 4.47399998 25.96665001 57 49 42
4.53813314 6.50116348 18.50738716 55 43 46
3.63661432 3.50328493 26.26203537 39 39 41
3.63661432 3.50328493 26.26203537 39 39 41
3.50442672 4.75781345 25.25792503 85 84 82
3.02635574 5.74121094 21.81223297 195 191 194
5.39510345 5.50378180 22.04621696 30 26 30
2.62249136 6.48985815 18.77814865 254 252 255
2.62249136 6.48985815 18.77814865 254 252 255
3.52220988 4.88969469 25.19575500 25 20 24
3.52220988 4.88969469 25.19575500 25 20 24
0.35942602 4.46798420 22.06145287 193 194 198
2.47904873 6.82978630 17.72918320 189 177 175
0.35690191 4.81272411 22.06813431 231 235 240
5.37803125 5.52860689 22.01396942 244 243 251
6.74829435 3.90434432 27.63346481 252 251 254
2.69677687 6.38441133 19.26796722 57 47 53
2.69677687 6.38441133 19.26796722 57 47 53
6.73948669 3.81056142 27.61044502 255 253 249
0.34554198 4.86522388 21.96407890 102 101 99
3.01429462 5.83545732 21.49213791 184 179 175
2.77228785 6.22851419 19.74711800 232 223 226
3.55324769 4.72878504 25.23903084 75 71 71
0.32079682 5.23260260 21.60421371 95 95 93
0.31653810 1.18811035 21.38566399 210 211 223
0.31653810 1.18811035 21.38566399 210 211 223
-5.07310677 -3.23128676 31.87191963 244 242 230
0.31878462 4.78633308 22.09131050 69 67 68
3.07614660 5.76182365 21.68511772 253 255 255
3.07614660 5.76182365 21.68511772 253 255 255
-5.03641605 -3.03072453 31.87314606 250 248 241
2.45891237 6.88907146 17.21665382 233 223 218
5.67974615 5.13151550 23.44978142 239 237 242
-5.02465534 -3.17172050 31.89199066 239 237 227
5.39013958 5.53537369 22.28175354 61 53 57
6.67283678 3.85184550 27.62854576 250 247 243
0.26910326 4.82799530 21.92003632 222 221 226
3.09814882 5.81610870 21.49988174 82 72 73
2.56316662 6.77940798 17.78322029 170 162 160
3.77681303 3.83611155 26.18999672 196 198 205
-4.99457073 -2.65739083 31.96779823 250 248 239
-4.99457073 -2.65739083 31.96779823 250 248 239
-4.98731947 -1.39044654 31.95045280 246 244 236
-4.94744253 -1.43033898 31.77120399 123 119 108
4.16837978 6.83369875 17.31671143 213 199 201
2.59733415 6.73389387 17.84339333 61 55 65
0.22303292 4.81877661 21.94406509 82 81 79
3.14316845 5.80940437 21.58405113 248 252 254
3.09172869 5.86211777 21.22544479 143 140 141
3.09172869 5.86211777 21.22544479 143 140 141
6.64650631 3.91819286 27.64166832 50 40 38
2.79311323 6.43726110 19.16083908 62 50 51
6.27212381 4.38143778 26.11578751 211 209 214
6.27212381 4.38143778 26.11578751 211 209 214
2.55711102 6.85374022 17.51455307 247 239 238
0.20079421 -0.30439246 20.55324554 162 158 160
2.57643175 6.83715248 17.60919571 78 69 73
0.18402140 -0.29553792 20.51089668 166 166 166
2.60143685 6.77576542 17.75301933 78 67 72
5.09755659 5.74730730 21.31875610 182 172 168
3.18537474 5.77955246 21.71722031 118 111 114
2.79454517 6.47455692 19.04592323 234 224 220
3.17582870 5.84410000 21.60180283 76 71 68
2.55569410 6.87923241 17.27102470 249 248 239
6.80713987 2.83429337 28.52658653 16 16 23
3.55638242 5.21693850 23.98831177 171 169 169
2.97587800 6.16328001 20.03829956 39 28 36
-4.92793941 4.18470287 32.24066162 81 76 73
3.89510703 4.39547968 26.18589973 102 90 85
3.21085000 5.81201553 21.56216049 79 73 74
6.74916887 3.59216595 28.29521561 49 45 44
0.13260454 5.22591448 21.25574493 85 82 81
2.84806919 6.48098755 19.09054756 49 39 30
2.61590648 6.83632660 17.50318527 60 56 57
-4.89136267 -1.36510801 32.20780945 254 252 245
2.61590648 6.83632660 17.50318527 60 56 57
-4.86008549 0.50727004 32.01531601 137 134 125
3.24508858 5.77650547 21.70511818 215 214 218
3.24508858 5.77650547 21.70511818 215 214 218
3.42977953 5.44076777 22.87823486 226 224 231
0.09779692 4.91531849 21.70970917 100 98 99
0.09779692 4.91531849 21.70970917 100 98 99
4.39322853 6.58150768 18.45809555 26 17 34
2.84727144 6.49099779 18.91155815 211 200 199
0.07148030 -0.93381906 21.70322990 74 73 72
2.67257833 6.79092836 17.64238358 77 69 80
-4.83366346 -2.74723077 32.15008545 251 250 243
-4.83366346 -2.74723077 32.15008545 251 250 243
3.55131292 5.32413244 23.41880608 15 10 15
6.09343243 4.54209566 25.63825607 154 150 155
-4.80775642 -3.31467485 32.03289795 248 245 237
2.68448281 6.75857544 17.68253899 211 203 201
3.18612909 5.94287252 20.90066147 161 160 162
0.04638197 0.30979991 20.22186279 198 197 208
2.89014006 6.48598337 18.92513084 56 43 29
2.94358444 6.38368225 19.19297028 195 175 176
3.63034630 5.24963713 23.61749840 170 164 164
0.02227697 -0.86749738 21.55237007 92 90 90
-4.75610113 0.18346842 31.88651657 136 133 122
2.72748494 6.77696753 17.63924408 233 226 220
0.00956499 5.63236189 21.31538773 171 171 169
0.00911741 0.22708736 24.06431961 112 112 114
2.72748494 6.77696753 17.63924408 233 226 220
-4.76307631 5.13136768 32.03551483 26 20 24
0.00461644 5.31914425 21.18066597 217 213 216
3.21079969 6.01446390 20.69665146 175 154 144
4.41815472 6.53171253 18.63249397 41 30 41
5.29988337 5.43810654 22.38278198 150 129 120
3.21079969 6.01446390 20.69665146 175 154 144
3.96309972 4.61373615 25.50906754 102 101 104
4.08822632 3.82817674 26.30217361 216 218 224
6.50622416 3.98967934 27.50700569 211 212 214
2.68297720 6.88422632 17.24568176 75 66 66
-0.00775156 5.25600433 21.26290703 235 232 233
4.03999949 0.55980098 25.90437889 223 218 213
-4.74041224 0.55897224 32.10548782 115 111 101
-4.78120804 1.00945890 32.38966370 128 125 116
-0.03101663 -0.55913436 21.02543640 249 249 252
-0.03296096 5.47503185 21.22381210 71 68 72
-0.03752977 4.98709774 21.68507576 248 252 254
4.37014437 6.51030350 18.56362724 184 177 177
4.02708197 4.57721281 25.68729401 251 244 240
-0.04874823 4.89676619 21.92866516 73 70 69
-0.05253788 -0.68123382 21.15089226 56 55 60
2.71543407 6.86951923 17.29294968 236 228 214
2.76931310 6.81679773 17.53716469 180 171 170
-0.08401309 -0.61702758 21.21879578 105 106 107
-0.08401309 -0.61702758 21.21879578 105 106 107
4.01032686 0.18018073 25.29573250 65 64 60
-0.10433403 4.96364641 21.88127899 80 79 84
-0.10394247 4.96962357 21.72607422 234 234 236
3.17773581 6.20214176 20.01614189 57 52 58
-0.10354921 -0.67079461 21.25767517 237 237 240
4.08617449 4.54641962 25.67535019 248 243 240
-0.12565510 4.41210604 22.26960564 214 215 220
4.23562384 3.64917278 26.52506256 171 173 173
5.11330223 5.57771873 21.91969109 178 177 185
-0.13263169 0.17548905 20.39939117 43 44 48
4.10878515 4.60419083 25.68026924 232 231 231
-0.15631074 4.73375130 22.23537636 97 96 97
-0.15998814 4.79199219 22.25329781 192 195 200
-0.15530455 -0.79669821 21.53528404 250 253 254
6.54556942 3.65970516 28.16964149 74 70 67
4.17681408 4.42910099 25.88426018 240 230 221
4.17681408 4.42910099 25.88426018 240 230 221
-0.19533114 4.86137390 22.27962685 63 59 66
4.28574324 4.10594940 26.53552628 141 139 141
4.28574324 4.10594940 26.53552628 141 139 141
-0.20759539 6.45448446 22.28269958 43 17 20
-0.20582068 -0.67251635 21.30333710 216 217 221
3.31020522 6.09667444 20.38733673 158 153 151
4.17741013 4.66241503 25.66186905 173 168 166
3.02265334 6.59443283 18.53677368 196 186 186
3.04296470 6.56441355 18.64201927 41 29 37
4.25759411 6.58154058 18.40903854 63 61 64
-0.25096700 4.71388817 22.52064133 226 226 230
-0.24456818 -0.56757069 21.18503571 62 62 67
-0.24456818 -0.56757069 21.18503571 62 62 67
-0.24167612 0.01775910 20.53108597 180 181 184
3.28998041 6.18895292 20.09887123 72 62 69
3.28998041 6.18895292 20.09887123 72 62 69
-4.52427101 -3.91304612 32.43802643 247 245 234
-0.26512560 -0.69426960 21.42534828 61 60 60
-4.51171875 0.38967529 32.44826508 136 133 124
4.03997183 6.78799582 17.53717804 214 196 195
3.72437739 5.51373720 22.68982315 209 204 211
3.55858088 5.72854280 21.65258980 49 48 58
6.42351055 2.56315660 27.89267349 174 180 192
3.22827959 6.26798153 19.64037704 254 253 255
-0.29868856 4.72354555 22.57756805 70 65 67
-0.29868856 4.72354555 22.57756805 70 65 67
-4.48488617 -3.12383223 32.52295303 244 241 232
2.90755463 6.73948956 17.67140007 21 12 20
-4.47045422 2.68374515 32.44722748 118 115 103
-0.30367932 -0.52615356 21.11794281 215 217 231
-0.32401642 6.13283968 22.46841240 26 4 7
-0.34454778 4.31912136 22.79560852 216 217 221
-0.34454778 4.31912136 22.79560852 216 217 221
3.50826883 5.78689861 21.15519905 172 169 173
3.05928898 6.58441448 18.42708588 91 77 82
-0.33634567 -0.70166951 21.49031067 45 47 46
3.76935005 5.49028206 22.68741608 74 68 71
-0.36603817 4.65002251 22.73583412 245 246 249
5.64428663 4.85991573 24.61738014 196 195 202
5.64428663 4.85991573 24.61738014 196 195 202
4.43004894 3.10949421 26.61148262 60 66 77
5.64428663 4.85991573 24.61738014 196 195 202
-4.36290646 3.84282660 32.47505188 243 239 231
4.38855362 0.30708572 26.35693550 159 155 149
4.38855362 0.30708572 26.35693550 159 155 149
3.36364126 6.14525366 20.19616508 70 65 71
-4.38494873 3.92182422 32.74230576 112 102 92
3.76185608 5.53152704 22.53334427 230 229 235
-0.36274794 0.48866576 20.49972343 152 152 155
-0.36274794 0.48866576 20.49972343 152 152 155
-0.39948735 4.90720749 22.31953049 181 180 180
4.46476126 3.63531089 26.68551826 59 58 60
3.73509979 5.47461319 22.31621170 209 204 208
3.73509979 5.47461319 22.31621170 209 204 208
3.77572608 5.54437637 22.40873718 238 235 239
4.34045601 4.65285778 25.72090340 23 17 17
4.34045601 4.65285778 25.72090340 23 17 17
3.32258868 6.27267170 19.67515564 49 44 51
2.95282388 6.82977152 17.48122406 162 148 150
3.84774637 5.44256067 22.70207024 52 42 43
3.00266457 6.75037146 17.68461800 176 165 170
3.36835122 6.23699284 19.76730347 254 252 253
-4.29010487 2.12401962 32.74099731 135 130 124
3.38848305 6.22041321 19.85524750 84 79 82
3.72996187 5.70139027 21.85147095 231 230 233
-0.47455871 4.81853533 22.50306320 204 202 208
-4.27002096 -3.08568382 32.65270615 154 151 140
-0.45165193 -0.34509742 21.08210373 158 157 162
3.85094142 5.55566406 22.54132652 69 64 65
3.04800582 6.72498512 17.84081841 6 1 8
-0.49474898 -0.77807504 21.74227524 184 184 185
4.55590963 4.32682896 26.56100655 236 226 217
6.19837332 4.10284853 27.16657066 206 202 200
4.61220360 3.29486108 26.87930107 29 29 38
4.55740786 4.25795794 26.54037094 87 62 53
4.62123489 3.43824100 26.91049576 182 182 188
6.19125128 4.14378214 27.14321709 206 202 206
6.19125128 4.14378214 27.14321709 206 202 206
-0.54820043 6.31234407 22.99836540 182 173 171
3.12891698 6.63955021 18.16155052 195 186 189
3.14905405 6.62986994 18.26292801 253 243 238
-4.19295025 -2.41569519 32.66566849 145 143 131
3.12772799 6.65297079 18.06777954 247 240 238
-4.19320917 -1.82596111 32.75160980 123 120 108
3.91894341 5.50150824 22.60038376 26 18 17
3.43894863 6.22733641 19.82466316 69 64 68
4.60066509 4.27773762 26.47767258 224 209 203
4.17703199 5.18192625 24.00134850 79 74 76
4.02971172 5.34679890 23.13794518 244 246 253
3.20089889 6.63519716 18.35870171 103 93 96
-3.89860702 5.65195417 30.58632278 54 37 43
4.69145298 3.42721367 26.89530563 57 56 61
4.12358141 5.22321749 23.63733864 140 129 128
4.67093515 4.25750685 26.76486588 228 218 213
4.67093515 4.25750685 26.76486588 228 218 213
3.56834340 6.17232800 20.41754150 157 150 154
-0.62714022 4.79243946 22.82057190 198 199 200
3.18519211 6.67432833 18.16521454 106 91 91
5.25258160 5.28376150 23.05713844 181 179 185
4.17217064 6.64065313 18.31859207 207 200 197
4.28468418 5.05212116 24.36800385 160 158 162
-0.65704954 4.67309332 23.14190865 55 53 54
4.28468418 5.05212116 24.36800385 160 158 162
-4.12884045 -0.92440158 32.73294067 148 144 133
4.62675714 6.03976631 20.32287407 217 217 227
4.23587275 5.14858770 24.05909920 76 74 79
-0.66969359 4.19393396 23.46794701 221 222 230
4.58674049 4.53310680 26.00890350 170 168 173
4.18507719 6.62011719 18.40828323 24 20 28
4.73644829 3.53821468 26.83944702 70 72 78
4.17703629 5.20807314 23.62587929 26 14 13
4.17703629 5.20807314 23.62587929 26 14 13
-0.69489259 5.02699137 22.68223953 49 47 53
4.64732265 4.49296665 26.22020149 28 15 13
-0.72073662 4.60504580 23.37224388 76 72 67
-4.10935259 2.07764220 32.95158768 251 250 241
-0.66628921 0.09385886 21.40523148 198 200 200
4.01316309 6.76376390 17.68910599 216 198 194
3.20746708 6.68172073 18.03301620 239 228 221
3.96123838 5.58228350 22.23768044 223 221 227
-4.08258152 -1.35785520 33.13173676 253 249 243
4.07887125 5.40721846 22.84947968 55 50 54
4.69187832 4.39003515 26.13420677 251 244 240
4.67129040 4.36592531 25.98977661 245 237 236
-4.03086185 -0.75303459 32.88452148 151 147 140
3.26207399 6.68510199 18.10907364 220 210 207
3.96173382 5.65730906 21.96904182 215 212 218
-4.02677059 -0.96214706 32.88017273 143 139 129
4.86765242 4.19060755 26.95545197 223 212 201
4.73929691 4.43983269 26.17860794 40 34 35
3.30752134 6.66456890 18.18058586 40 30 31
3.30752134 6.66456890 18.18058586 40 30 31
3.30752134 6.66456890 18.18058586 40 30 31
5.84358883 4.50151539 25.84828377 155 151 155
5.84358883 4.50151539 25.84828377 155 151 155
4.91975498 4.10918760 26.98301315 34 28 26
4.78284407 4.36635685 26.20041656 226 218 217
5.57982111 4.83295107 24.68898201 210 204 209
3.93449807 5.79459000 21.51048470 60 56 58
3.89333248 5.85249376 21.28314400 119 115 114
3.68830514 6.17630196 20.13919640 164 156 151
3.97036529 5.78357649 21.61544800 231 231 235
3.29373050 6.71366739 17.90488625 191 176 171
-3.95321345 -4.77068329 32.84268188 255 253 244
4.82033014 4.39902449 26.20197487 38 30 33
-0.82971382 0.02797543 21.83010292 219 218 222
4.70088720 -0.08190118 25.49426460 181 179 182
4.92684746 4.27561426 26.69337082 227 217 208
4.80948067 4.49839783 26.04063988 31 24 26
-0.89563322 4.76837873 23.30286217 72 71 76
-0.91505301 4.52084637 23.75972557 56 52 52
-0.90118569 4.71350718 23.32407761 243 247 254
4.75378275 5.85682678 21.08230782 21 17 26
4.75378275 5.85682678 21.08230782 21 17 26
4.04448605 5.71309614 21.77646828 223 222 227
-0.95379382 4.51298094 23.87495613 57 56 58
4.04448605 5.71309614 21.77646828 223 222 227
-0.95865673 4.53492212 23.76911926 181 179 181
5.05693769 3.35033989 27.03613281 90 91 96
5.05693769 3.35033989 27.03613281 90 91 96
4.05922174 6.71102333 18.03268051 36 30 39
5.05693769 3.35033989 27.03613281 90 91 96
-3.90397072 -0.67780161 33.12469101 121 117 108
6.11006784 3.99214816 27.16382790 241 236 232
3.34521675 6.75808048 17.85928154 223 212 210
4.16949749 5.58204317 22.20602036 171 170 175
4.96231031 0.64818823 26.43074608 86 79 71
4.33936596 5.34369230 23.10365295 38 29 27
-3.86257434 -3.06514239 33.11060333 240 236 227
-3.85776091 -0.90759033 33.08198166 159 155 149
4.37098932 5.31809807 23.26210785 234 235 242
-1.02628529 4.89832115 23.37300491 236 239 246
4.96583366 4.40748024 26.31804657 223 222 225
4.46187639 5.19081068 23.64328766 230 228 234
4.46187639 5.19081068 23.64328766 230 228 234
4.46187639 5.19081068 23.64328766 230 228 234
6.09552050 4.05143070 27.18606186 28 13 14
5.13031626 4.07138872 27.13039780 50 44 42
5.28323984 5.15764952 23.58520699 222 225 235
-3.82612276 -0.63669479 33.20653915 108 105 94
4.25865459 5.50236464 22.49532509 216 215 220
4.04699135 6.68560839 18.06743431 225 218 214
4.25865459 5.50236464 22.49532509 216 215 220
-1.10903037 4.44612789 24.18266487 250 249 251
-1.12887084 4.44617796 24.42487144 79 57 66
-3.81124902 -0.68946582 33.26155090 245 242 235
-1.11776495 4.50375652 23.98788261 213 212 217
4.96824408 4.46121407 26.20773315 53 44 45
4.72001839 4.73517370 24.85594940 179 150 127
4.72001839 4.73517370 24.85594940 179 150 127
4.72001839 4.73517370 24.85594940 179 150 127
-1.07522106 -0.57287407 22.46002960 198 196 198
5.55626154 4.77678776 24.89463615 219 217 225
5.55626154 4.77678776 24.89463615 219 217 225
-1.13562977 4.82969809 23.63005447 68 71 73
-1.13820469 0.46573919 23.54944992 54 51 51
-1.15212381 4.64582777 23.82938576 69 67 70
3.40872526 6.70960569 17.92675209 188 178 179
5.03694773 4.35726357 26.44393349 29 20 19
4.98349714 4.38576460 26.13472557 229 227 231
4.53472233 5.14899254 23.75201988 193 192 200
4.79821968 5.69158220 21.54965782 206 201 206
5.70362616 4.59609270 25.61613464 176 173 184
4.07169104 6.65245914 18.32192039 59 52 55
5.21344805 4.04927063 27.17353439 53 49 46
4.56786776 5.15310764 23.79494476 217 215 223
3.99575996 5.95960140 20.81419182 170 171 182
4.60096788 5.15256023 23.96640015 25 16 7
-3.22908878 5.85624218 28.89405632 172 150 138
4.18216801 5.68113613 21.76733971 177 172 173
4.49300003 6.04707527 20.28473282 239 242 245
4.57674694 5.18684435 23.74573708 81 77 74
-1.32660592 6.86998129 25.02185440 163 143 146
-3.18194461 6.00726604 28.75761986 34 17 16
-3.18194461 6.00726604 28.75761986 34 17 16
3.99320412 5.99912977 20.68399811 182 181 187
-3.68750644 -1.90688396 33.37764740 154 150 140
3.99320412 5.99912977 20.68399811 182 181 187
5.10061741 4.31018734 26.41674805 76 53 54
5.33187723 5.06877327 24.08518791 61 59 63
4.39341640 5.35738468 22.74022102 171 158 146
5.22232389 0.48470664 26.97182083 208 208 210
5.22232389 0.48470664 26.97182083 208 208 210
4.85879564 4.67478418 25.06524658 194 195 202
4.09746218 5.85068274 21.13405991 162 161 162
6.02166557 4.09783030 27.20298958 20 9 8
3.95366764 6.71708775 17.86306763 75 66 69
3.65974307 6.45765734 18.87195587 187 173 172
3.67153955 6.42644167 18.90587234 42 31 37
-3.63640356 -3.49751258 33.26617432 135 131 119
5.28885889 3.43491483 27.20649147 203 203 207
4.64088011 5.20992517 23.75568771 223 222 235
4.65851307 5.16480827 23.82280922 29 16 8
5.98613119 4.13493156 27.11600304 254 254 255
4.90623283 4.81015110 24.98209381 196 196 204
5.33743477 4.04296970 27.15302467 228 218 210
-1.34333396 -0.58383244 23.11668777 58 58 60
5.33743477 4.04296970 27.15302467 228 218 210
-3.10448098 6.07444191 28.64666939 26 12 15
4.49146938 5.43715954 22.84230614 22 13 11
-1.33271360 0.02499420 22.79802895 63 64 69
-1.42251337 4.72187901 24.23240280 196 199 203
3.66287732 6.54377985 18.60478592 197 184 188
-3.59714985 -3.54492140 33.25856018 230 227 218
4.96160030 4.73843336 25.16819763 193 198 205
-3.60587049 -0.59982723 33.51186752 249 247 241
5.27551699 4.28295851 26.67973709 34 14 14
5.95080900 0.43997318 27.06617737 76 70 66
4.58451176 5.31166697 23.16921043 74 70 78
4.48941755 5.45083714 22.66500473 202 203 207
4.07382727 6.07820177 20.54275894 45 40 50
4.61902046 5.29431009 23.28555107 234 232 237
3.45498323 6.82564783 17.38718987 195 181 184
-3.09766769 5.99491978 28.94979668 10 0 1
-3.09766769 5.99491978 28.94979668 10 0 1
5.44698906 3.93966317 27.37043571 66 65 63
4.57369709 5.49080801 22.96183968 38 28 26
5.31423664 4.22792196 26.65450859 254 251 249
5.03812122 4.72186852 25.24697876 196 194 204
5.03812122 4.72186852 25.24697876 196 194 204
3.98913670 6.65188408 18.22390938 224 218 216
4.70655298 5.22413015 23.52419090 225 229 238
5.33007145 4.20529175 26.63337898 254 251 250
3.98913670 6.65188408 18.22390938 224 218 216
5.04477406 4.75806284 25.20007133 68 65 65
5.22507524 5.08454847 23.89479637 34 24 26
4.54125786 5.49600935 22.68355179 203 201 207
-3.52271104 -0.38890976 33.51647568 129 123 112
5.46274567 3.50437760 27.28030396 170 169 180
-1.57695603 -0.11640097 23.79747391 60 60 59
5.49319887 0.27692384 27.42668533 77 71 60
4.63036966 5.79117918 21.23592186 202 199 206
-3.52692699 -0.59330386 33.60288239 102 98 89
4.63036966 5.79117918 21.23592186 202 199 206
6.10124731 2.28884435 27.98709297 211 210 209
4.38328743 6.09300375 20.10783195 254 253 252
4.38328743 6.09300375 20.10783195 254 253 252
6.02097654 3.34299946 27.64412308 215 220 225
4.51210880 5.47421789 22.48173332 194 189 191
4.51210880 5.47421789 22.48173332 194 189 191
-1.58953810 -0.18139514 23.41773224 59 62 64
3.57800484 6.74693632 17.77308846 252 248 251
5.51337242 -0.02998245 27.37700653 46 36 26
3.53737473 6.81937885 17.54932785 206 197 186
4.32586956 5.75229168 21.45313835 251 250 254
-1.82822108 6.70343590 26.14463997 218 191 163
5.21295261 5.03430986 23.98798561 52 47 51
4.32586956 5.75229168 21.45313835 251 250 254
5.36663103 4.19299555 26.59205818 252 248 245
-1.85151184 6.65845823 26.21130180 64 41 27
4.89048481 5.05636454 24.19680405 200 201 207
3.88666534 6.68628311 17.89668465 224 201 204
4.89048481 5.05636454 24.19680405 200 201 207
5.14142132 5.14790249 23.69388008 252 251 253
5.14142132 5.14790249 23.69388008 252 251 253
5.54944754 3.26923966 27.41552925 199 198 204
-1.89994061 6.60412598 26.56583977 232 204 180
5.30225325 4.89593649 24.48401451 141 132 133
3.93496823 6.64248180 18.17222404 231 213 214
5.54944754 3.26923966 27.41552925 199 198 204
-1.91382945 6.61806965 26.34535217 210 185 163
4.80976629 5.24222565 23.64980888 49 37 32
4.77366304 5.55027246 22.05608368 32 23 22
4.71577406 5.65563440 21.80518532 246 244 247
3.55686617 6.83434010 17.48841286 220 207 199
-1.91636682 6.69010496 26.14990616 67 41 25
3.55686617 6.83434010 17.48841286 220 207 199
-1.96864045 6.52910042 26.81916618 211 186 164
-3.38990521 -2.85306406 33.52942657 255 254 248
5.43064928 4.21903181 26.63395500 20 7 10
-1.88621914 6.76712132 25.57399368 172 151 143
5.43064928 4.21903181 26.63395500 20 7 10
4.64420176 5.41544962 22.73298645 222 221 228
4.85707283 5.14034653 23.74497986 77 76 81
-2.07937765 6.39092064 27.54194641 207 179 158
-1.98471808 6.68024158 26.18791580 211 181 151
-2.77177262 6.30802345 27.77311134 44 33 31
5.46308088 4.16534233 26.66993332 254 253 250
4.95734406 4.98721600 24.19633102 228 230 236
5.82973194 4.20735502 26.96911812 122 119 121
6.07360125 2.22902322 28.09792519 97 94 87
5.04011774 5.19721889 23.35118866 52 50 55
4.33270359 6.09150457 20.08600044 254 254 254
3.95805359 6.40378284 19.27114868 12 6 16
3.95805359 6.40378284 19.27114868 12 6 16
5.48186302 4.28008461 26.68686295 226 222 224
5.48186302 4.28008461 26.68686295 226 222 224
4.83591175 5.48536396 22.42926216 201 201 202
3.59460163 6.83425093 17.48942947 79 63 64
4.74438667 5.57795525 22.01218605 231 230 236
4.97176790 5.27242041 23.09323502 238 236 240
5.01368666 5.27141857 23.28943825 43 33 30
5.01368666 5.27141857 23.28943825 43 33 30
4.87824440 5.16889191 23.66097832 226 228 233
-2.68017769 6.44628620 27.28022003 241 223 206
-2.68017769 6.44628620 27.28022003 241 223 206
4.71853256 5.59465981 21.97103500 58 54 60
4.87824440 5.16889191 23.66097832 226 228 233
-2.74358726 6.23929501 27.97928429 23 11 11
5.56078911 4.02930164 26.93832588 234 223 217
3.58133268 6.86434126 17.33867645 155 140 138
5.13845778 4.78464365 24.83362961 154 152 158
4.99842358 5.22286606 23.32445908 220 224 233
5.09766054 5.11661816 23.78849411 190 188 191
4.86097336 5.25533867 23.32938385 37 30 34
4.86097336 5.25533867 23.32938385 37 30 34
-3.26324320 -3.98499513 33.60165405 249 249 240
3.83764577 6.60634136 18.41555405 217 196 195
5.09766054 5.11661816 23.78849411 190 188 191
5.09766054 5.11661816 23.78849411 190 188 191
5.12689209 5.07667685 23.95207596 205 203 206
-2.32921553 6.38704157 27.46753311 197 171 143
4.82312250 5.29475975 23.14324379 71 71 73
4.70189524 5.44562531 22.55210114 57 55 57
4.32099771 5.97879791 20.70786095 142 139 142
5.73653984 3.35996437 27.48035240 226 228 234
4.65033627 5.52623844 22.27280235 224 220 223
5.75876856 2.72258449 27.57474327 200 204 215
4.82624197 5.32044315 23.09172249 222 223 227
4.82624197 5.32044315 23.09172249 222 223 227
-2.92044926 -3.23828530 33.98930740 239 236 227
-2.92044926 -3.23828530 33.98930740 239 236 227
4.88999605 5.22976732 23.35680962 205 204 210
3.59654570 6.90103388 17.17246437 107 96 99
-2.32485819 6.55926943 26.69851494 16 9 14
5.61795950 4.18316031 26.79819679 17 4 4
-2.35257959 6.47431135 26.98244095 210 190 176
5.61795950 4.18316031 26.79819679 17 4 4
3.87178826 6.60977745 18.18039894 232 208 207
3.87178826 6.60977745 18.18039894 232 208 207
5.81547165 3.84573817 27.73438454 41 41 40
5.84200525 2.67744374 27.83896637 226 231 237
5.63040781 4.22139883 26.80119324 247 246 249
4.67613602 5.54215288 22.23925400 228 226 230
3.62578273 6.89782763 17.23253822 228 214 203
4.07587147 6.35891438 19.35451508 27 17 26
5.04922247 5.03236389 23.97503090 63 60 66
5.05319405 5.06681013 23.98910904 208 207 212
5.89804554 3.84004164 27.71659660 91 87 84
5.35486794 4.64039373 25.37118340 166 160 163
4.96210670 5.21221733 23.50796700 81 78 87
4.98933601 5.18421412 23.59601021 195 195 196
4.98933601 5.18421412 23.59601021 195 195 196
4.87255001 5.33366489 23.03693390 70 65 68
4.92385530 5.27469015 23.25486565 232 230 234
4.71112871 5.56735516 22.22939491 226 225 228
4.70636082 5.51865292 22.19366837 30 23 18
1.47652125 7.17179871 18.59587669 46 31 35
1.45617557 7.14003611 18.66793823 39 28 29
1.68053973 -0.16638778 21.57299995 53 52 57
1.51677108 6.54260588 18.73506355 180 168 171
9.29437637 2.29118562 30.11932945 81 80 82
6.63993263 5.50339890 21.53952980 49 38 38
1.43588078 7.27382708 18.80784607 55 47 48
1.79896843 -0.09301149 21.60328674 168 169 171
6.61505747 5.57409334 21.52764130 36 28 26
6.61505747 5.57409334 21.52764130 36 28 26
-3.05427551 -1.57015157 33.96776962 247 244 235
7.84001350 4.33315086 25.56394005 40 32 39
9.08063698 1.25688422 29.67645454 85 79 72
1.39110494 6.65706348 18.60806274 35 26 38
-3.19764328 -4.41383076 33.65518570 243 240 230
-3.02491522 -2.08201575 33.92977524 252 251 241
1.99952352 4.78410578 23.14633369 113 118 122
5.80540085 2.62148309 27.64859390 82 83 87
1.68761075 4.53523540 23.05516052 84 83 82
8.19579506 3.88628387 26.88544655 15 5 10
-13.99864674 -8.23311424 48.93241501 81 81 72
5.56941795 7.16635180 18.30549049 130 129 125
1.42627525 6.27042627 19.84524345 81 69 76
-2.95494199 -3.71035647 33.83224869 245 243 233
1.44405234 6.22728920 20.10114479 198 186 186
8.40750122 3.55263424 27.71829414 160 147 141
8.40750122 3.55263424 27.71829414 160 147 141
7.35233450 4.74983740 24.24537468 40 30 38
7.35233450 4.74983740 24.24537468 40 30 38
5.91925859 3.89898372 27.77708817 238 226 220
1.62714648 7.31327868 18.22689056 32 21 23
-13.57105255 -7.18341541 48.48723221 152 151 146
5.85115385 3.39427972 27.45476532 178 178 180
-13.57105255 -7.18341541 48.48723221 152 151 146
1.63636088 4.47806835 23.24366379 100 100 102
1.76090860 6.45588160 19.48502541 188 173 175
4.90066862 5.17433834 23.51527977 51 49 54
2.09387016 4.78280783 23.04482269 97 99 105
6.03914928 5.99092293 20.00145149 162 143 129
9.05521679 1.71793616 30.03520012 202 202 206
2.11456275 4.90662670 23.03049660 91 84 77
1.32650888 6.34080601 19.59713364 116 100 104
7.32332706 4.73039961 24.38446999 18 5 14
3.61396146 6.85406256 17.40889740 85 72 65
7.94488573 4.07787561 26.57971954 13 4 8
8.89955521 2.29015589 29.81396866 66 65 64
1.46312058 -0.63666242 21.98453522 113 117 121
8.95969677 1.57832050 30.02672958 196 190 190
8.88912582 1.72660065 29.79527664 211 211 213
-7.72490931 4.97971249 29.08990097 130 129 135
2.37451673 3.98603368 25.34955406 51 52 55
-2.22790956 6.45071220 26.96880531 63 48 45
-2.79405570 -2.84639287 34.04132080 248 246 237
-2.79405570 -2.84639287 34.04132080 248 246 237
-7.65743732 4.79409266 29.23029709 162 163 167
4.99923277 4.97590303 24.21054459 55 48 50
7.22026396 4.66776562 24.30620956 22 11 13
-3.34116220 3.11189508 34.06717682 251 249 243
1.41459131 -0.63914955 22.09437943 106 107 109
8.91026974 1.53750408 30.05083275 105 99 95
8.91026974 1.53750408 30.05083275 105 99 95
8.07295513 3.82852888 27.29309464 21 9 7
7.68169546 4.26774979 25.97320175 13 0 2
7.68169546 4.26774979 25.97320175 13 0 2
5.65694237 3.27325964 27.47371292 68 68 68
8.80712986 2.30652666 29.80871773 69 69 69
5.63013649 3.38743615 27.36416626 66 63 64
5.63013649 3.38743615 27.36416626 66 63 64
-2.79937792 4.14153242 35.02597427 240 236 233
5.79581785 6.06723928 19.64926338 54 40 31
-7.61137819 4.81013584 29.49189568 160 159 164
-2.17006278 6.39962673 27.51061249 171 143 124
-2.17006278 6.39962673 27.51061249 171 143 124
1.31850135 0.02389013 21.43377495 152 159 163
5.99472713 3.80220389 27.80291748 66 62 63
1.36905229 5.59996557 22.40839195 129 123 122
2.44326377 4.82082510 25.19621658 224 208 200
7.11398268 4.68740797 24.38066101 174 167 171
7.60248566 4.23360968 26.07007408 8 1 3
7.60248566 4.23360968 26.07007408 8 1 3
1.27160764 -0.39046973 21.31469727 123 124 126
1.27160764 -0.39046973 21.31469727 123 124 126
1.27160764 -0.39046973 21.31469727 123 124 126
-2.63093090 -3.68430090 34.20014191 254 253 243
5.63089466 6.18533802 19.55251122 41 30 29
5.63089466 6.18533802 19.55251122 41 30 29
5.62622166 3.00105190 27.49607658 50 49 51
5.62622166 3.00105190 27.49607658 50 49 51
2.54004002 4.10984039 25.40796471 145 145 149
-3.39094925 -0.53577495 33.73575211 139 135 123
7.94143772 3.78282428 27.85131645 31 23 19
7.94143772 3.78282428 27.85131645 31 23 19
1.14835882 6.07600069 20.50657272 90 81 86
5.56906080 6.24108791 19.54211044 64 52 55
1.24621856 5.28552389 22.33188820 156 157 161
7.30866861 4.40097713 25.70224190 17 6 14
1.07726085 6.94446230 19.49315262 132 124 118
5.55466652 6.15501547 19.56196404 51 41 45
1.14064133 6.05115223 20.69490242 146 136 136
8.37443829 2.10586262 29.53238106 179 183 190
6.04350424 5.60266685 21.44335175 79 78 82
5.43102980 6.22205257 19.31504822 61 50 46
8.20803547 1.44359672 29.21071243 91 79 65
5.06251955 6.58716393 18.03598595 175 171 169
1.03156090 6.79221439 19.41635132 34 27 30
5.08950090 4.71348810 25.14165115 136 134 139
1.03156090 6.79221439 19.41635132 34 27 30
5.23802900 6.37753010 18.78439522 84 83 94
2.25991130 5.78576279 21.68466568 136 126 139
5.23802900 6.37753010 18.78439522 84 83 94
2.40460777 5.46652317 22.90802574 169 167 171
6.81928730 4.69846869 24.69974518 39 29 35
8.13919258 1.90809011 29.48622322 216 215 223
2.25371861 5.83633041 21.40513420 54 48 55
5.29171705 6.20307779 19.19809532 211 179 157
2.71275449 3.47540593 25.50836563 187 189 194
7.90762806 1.57981312 28.94299698 90 84 78
3.91908360 6.67132616 18.03544044 249 228 225
0.97028118 6.84732437 19.69085693 26 17 18
1.02352023 6.00433683 20.77375603 214 205 198
5.13347292 6.35454369 18.83241653 170 170 169
1.03814018 -0.49925318 21.29263306 10 11 16
5.25510645 4.44673586 26.06906700 153 144 146
7.87354660 3.34265709 28.93886948 225 214 209
1.03090453 -0.73000479 21.49124336 178 176 174
-6.38217545 4.57129526 30.55824471 162 162 166
7.89859104 2.08623958 29.13832855 170 171 176
-1.85861301 6.57844543 26.79009628 152 123 103
-3.48802352 -2.01704621 33.54195786 252 249 244
7.50378084 3.86888456 27.74888992 54 46 52
7.59302473 3.69467330 28.10184669 73 64 66
3.92476439 6.65439367 18.03420830 193 171 174
-3.45944619 2.94650793 33.19871521 152 148 139
3.92476439 6.65439367 18.03420830 193 171 174
2.07382798 6.59049416 18.60007477 118 104 108
5.10308361 4.72061586 25.38474846 62 60 65
4.30310535 5.79746628 21.41234589 82 77 81
0.98587811 -0.76343685 21.63080597 173 171 170
2.90263081 3.19448209 25.88091660 157 161 170
2.44490170 5.86776304 21.38533783 143 137 142
-1.75625050 6.73997831 26.00599670 169 145 131
0.96540183 5.17260218 22.04922867 92 86 83
2.83312941 5.00245714 24.68454742 77 72 70
-6.09802485 4.50204134 30.94383812 141 141 142
2.94453001 0.74741805 25.55100441 57 52 54
2.13396525 6.63310575 18.37513542 93 73 84
0.84475756 6.92566204 20.09961128 23 15 11
5.04369783 4.79572821 25.17843628 65 63 67
2.66409016 5.43397188 22.92465401 169 162 164
2.35115767 6.14685297 20.22496986 182 172 170
2.35115767 6.14685297 20.22496986 182 172 170
0.89241862 -0.77575314 21.48284149 53 54 59
0.94000918 1.77425241 22.74675179 232 235 249
2.68706274 5.46913433 22.96352959 158 153 156
0.82637113 5.16355228 21.97430229 225 225 223
0.82637113 5.16355228 21.97430229 225 225 223
2.21959615 6.58792830 18.59017944 50 41 47
4.94542694 6.36623001 18.94862747 40 24 14
7.05212450 3.96753931 27.07419205 32 22 18
3.07096553 4.08871269 25.63492012 54 53 59
3.82205939 6.42181015 19.11692047 37 28 31
3.82205939 6.42181015 19.11692047 37 28 31
7.49898005 2.70192385 28.96823311 149 149 153
0.76389205 -0.74085975 21.27301788 67 68 71
2.22538495 6.61370611 18.40967560 75 59 61
0.77873236 4.80008745 22.32316589 223 224 224
0.73014849 4.81252956 22.24725914 236 237 241
0.66722780 6.73855877 20.37550354 212 202 196
4.68582869 6.56097460 18.31312752 204 199 200
3.23280191 4.64877701 25.83440590 237 224 215
0.70096147 -1.15373456 22.25249100 105 108 109
-3.56672716 -4.78039694 33.29471207 138 136 124
-1.42329085 -0.30953744 23.28764725 66 66 68
0.63029283 6.76328135 20.51608467 176 169 164
3.29237890 4.60776520 25.65367889 227 214 205
6.18112946 4.90442324 24.23791695 50 42 53
5.73029232 4.45557642 26.05914688 146 142 146
3.69733000 6.52595663 18.68775749 209 198 196
0.60508031 6.51633072 20.51724815 149 143 140
4.71479559 6.43063450 18.57925034 175 176 176
-3.60942912 -1.42012095 33.39995575 251 250 241
3.66205478 6.51349401 18.58133507 163 155 162
0.56611717 6.67201042 20.62315178 55 46 47
0.60503030 4.82872772 22.27315903 114 114 113
0.60503030 4.82872772 22.27315903 114 114 113
-5.41970253 -1.92873216 31.48451996 206 203 194
2.58074975 6.28640652 19.77441597 50 43 49
3.12797427 5.19982529 23.89386177 148 147 148
3.42600822 3.72870231 26.06305885 180 180 183
4.87902641 6.36860037 19.36067963 53 45 56
4.66594172 6.48707199 18.57052994 169 166 171
5.72381496 5.29329920 22.78804016 128 111 106
3.45620084 3.40654373 26.05034256 151 152 157
3.03780150 5.46262836 22.88976669 89 86 88
5.21614027 5.83596754 20.81597519 29 22 34
0.48944625 0.54697746 20.62325668 123 122 122
0.47856048 0.35629866 20.48614311 151 153 158
0.48398101 -0.70056850 21.18518257 38 41 46
7.13821983 2.86645055 28.61921120 83 87 93
5.27845430 2.78898954 27.16659355 175 183 199
4.54770470 5.22518635 23.43379593 79 74 79
4.54770470 5.22518635 23.43379593 79 74 79
3.56020188 3.71038747 26.22090530 45 47 53
5.27449942 3.93216658 27.20099640 161 157 152
-3.64014912 -2.39993048 33.24801636 163 160 151
-3.65459442 -2.59319472 33.35577393 254 254 247
7.06658459 2.91144800 28.62176323 68 66 73
2.36078000 6.92658901 17.30728722 90 85 87
0.43298149 -0.88972473 21.51768684 81 81 86
0.40627170 6.48869133 20.88923454 68 62 64
3.58200002 3.84227085 26.08001137 58 56 63
2.99161434 5.77104759 21.74924088 38 33 39
2.48676443 6.78693342 17.92277145 202 195 189
6.95632076 3.59963202 28.41822624 227 217 210
-5.06038809 -0.86162663 31.66975975 251 248 240
4.18998575 6.83663797 17.22581673 182 163 164
2.50024176 6.82577896 17.77850533 96 87 86
3.72010207 3.63314867 26.29313278 155 155 155
0.30809435 7.13736153 21.41209602 101 91 92
5.80381250 5.02350235 23.92146683 25 15 22
3.08907199 5.72689056 21.71203041 65 62 63
-3.70165253 -1.36146998 33.23878860 164 160 151
0.28378114 7.21053553 21.29356575 174 172 172
3.72171164 4.51032209 26.06752777 235 223 214
4.36565971 5.41707468 22.75522041 49 36 33
4.36565971 5.41707468 22.75522041 49 36 33
3.77662444 3.13655806 26.43468285 57 64 74
2.54662514 6.85543346 17.77532959 172 165 159
-1.76970255 -2.98018336 35.02531815 252 249 241
2.54662514 6.85543346 17.77532959 172 165 159
5.63115263 5.14675951 23.32734299 54 49 55
2.51745939 6.84843349 17.49909592 105 99 108
2.75715756 6.39272261 19.15552902 73 59 63
-4.97280741 0.28115880 31.79516411 245 241 235
-4.98943901 -1.54256678 31.90907860 155 148 137
0.25023106 -0.68619716 21.21403885 53 53 55
3.33200908 5.36663580 23.08657074 137 130 132
-1.20383573 6.80166769 24.62291527 142 130 134
-3.76786613 2.66463423 33.43361282 251 248 242
5.21485138 2.63263059 27.34797096 210 215 231
5.18131685 3.29332256 27.22561073 155 155 160
0.19864208 5.19626856 21.40559769 250 251 252
-4.92620659 -2.11898589 31.96310997 142 138 128
0.19678479 4.84616518 21.88555717 186 183 180
-4.92620659 -2.11898589 31.96310997 142 138 128
3.14421630 5.84415627 21.45026970 77 68 71
3.14421630 5.84415627 21.45026970 77 68 71
-4.94529867 4.27486515 32.15851974 166 164 165
3.87521219 3.57264900 26.42297554 46 46 51
2.98864675 6.11789227 20.35306358 120 113 117
4.32745218 5.52438736 22.77924728 76 74 78
3.24849367 5.70646095 22.07937431 46 41 48
-3.80034256 -1.47766256 33.38770676 252 251 245
-3.80034256 -1.47766256 33.38770676 252 251 245
0.16564985 5.86728239 21.46239090 176 172 174
2.63850951 6.74683237 17.77772331 151 141 145
3.40037704 5.41704226 22.90077019 97 93 94
5.83113718 4.49407196 26.05596924 56 54 61
4.11943293 6.63940096 18.40245438 61 59 66
3.93304658 3.64371800 26.47418022 171 172 176
5.18496513 2.51798511 27.36051750 97 89 79
3.90377235 3.91096759 26.19518089 168 169 169
3.90377235 3.91096759 26.19518089 168 169 169
0.13891283 5.22532225 21.44392204 246 246 246
3.47956300 5.34113503 23.32923126 158 152 158
-3.44746900 5.83972216 29.93793678 53 35 35
3.47956300 5.34113503 23.32923126 158 152 158
-3.82712340 -0.56261891 33.19520569 240 238 227
-4.85216951 2.12208295 32.00557327 146 142 136
4.27278042 6.45805502 19.03499031 42 33 43
4.57208872 6.05122662 20.36490059 49 46 55
-1.04671729 4.79533672 23.41215897 96 98 100
0.08159447 4.78106546 21.83164787 70 69 73
0.06990594 5.71075773 21.36857605 40 32 33
3.01545215 6.15515995 19.93904305 148 139 145
0.05091153 3.87636352 21.65545082 96 94 97
6.50519848 4.05462503 27.38114548 151 151 155
4.05437040 4.34774590 26.37159348 92 89 91
-3.85768557 -3.01409531 33.09350586 138 135 126
-4.78799629 -2.10419488 32.25705719 234 231 225
-4.78799629 -2.10419488 32.25705719 234 231 225
-0.00050385 1.43340838 21.17310524 46 46 48
3.72136164 5.14500666 23.98230553 155 149 145
-4.67745924 -2.06581450 31.64383316 249 247 239
4.19783068 2.75257874 26.81298447 94 93 87
-4.67041922 -2.27144647 32.07091904 171 168 159
5.10996532 2.49252319 27.33539772 190 191 198
4.41940260 5.20570517 23.64528084 83 77 84
-4.68731117 -1.84597647 32.41620255 247 246 237
-0.10394812 5.30631018 21.36850929 181 181 183
-4.67240429 4.27536535 32.53397751 242 232 226
4.11031103 6.80424213 17.61951256 56 50 57
-0.13081141 5.62273359 21.53218651 30 28 31
4.22551441 4.35178375 26.41721153 235 222 212
4.27292585 3.10786390 26.68744659 167 173 184
4.26708937 4.32171822 26.59706879 63 62 60
4.82567978 0.50209326 26.01303291 195 194 199
6.01641989 4.47720671 25.85212708 141 135 136
-0.17475662 5.02607775 21.72364044 87 85 90
-4.55600071 -2.72397590 32.26497269 249 248 241
4.29824543 3.13106871 26.58277702 64 67 79
-3.96460295 -1.43072939 33.02283096 249 246 240
4.03305912 6.79097033 17.42687416 72 60 72
3.76400065 5.39823389 23.02542305 70 61 63
4.98004913 2.69347167 27.02817154 167 173 187
-4.54732561 -2.54116082 32.55854416 150 149 139
-4.51550245 2.24475098 32.38161469 226 223 217
-0.25534552 0.06972616 20.56559372 198 198 201
4.06733418 5.57375193 22.16669846 27 18 16
-4.45475960 1.48008347 32.33504486 233 230 221
2.85962343 6.86972475 17.31054878 68 54 66
3.77473044 5.41921568 22.82120323 60 52 52
-0.30893698 0.28643143 20.44469070 130 134 139
-4.38422346 0.86931998 32.60431290 247 243 239
4.44947147 3.49272013 26.72353745 170 170 169
-4.35541153 -2.74505210 32.52256775 234 231 222
-3.59780598 5.86740732 29.47930717 33 17 18
4.17624998 4.84947824 24.97953224 149 144 148
4.17624998 4.84947824 24.97953224 149 144 148
-0.41414946 4.78696156 22.63578796 83 81 85
2.98520207 6.74344921 17.79278183 29 18 28
-0.43223926 4.65909767 22.84010887 79 76 75
4.29814434 -0.03528038 25.36981201 142 140 141
-4.28163481 -2.45859337 32.64910126 251 251 243
-0.47258806 -0.99752516 22.39128685 81 81 79
-4.25800276 0.27387270 32.61841202 246 241 235
4.61332750 0.29703882 26.91924095 51 44 34
4.05915356 6.70667934 17.78381157 81 76 82
-4.25891924 1.29736853 32.68778229 236 232 223
3.36061621 6.30154371 19.55829811 49 45 51
-4.21780396 3.92128134 32.95866013 137 127 121
5.80251551 4.59358835 25.45034027 149 145 152
-0.58147877 -0.94768471 22.39490891 93 93 93
-0.59846973 4.77875948 22.87689781 55 53 58
4.26556444 6.46390963 18.86504745 168 164 166
-4.17671061 -0.02608734 32.82602692 162 158 148
-4.13797092 2.21414566 32.56061935 227 224 215
-0.62441933 4.71230888 23.02872086 53 53 55
5.17858648 5.37681675 22.72014236 120 104 89
4.67895603 4.27584887 26.62549019 221 207 199
-4.07504129 -2.32584381 33.06428146 249 248 240
-4.07504129 -2.32584381 33.06428146 249 248 240
-0.67136866 4.70765924 23.12894630 162 161 160
5.67816019 4.72627640 24.97277641 154 151 154
-0.72105247 4.20641851 23.44380569 100 97 98
-4.08029509 2.18718457 32.94285583 241 240 234
-0.75688356 6.94810200 23.65109062 164 153 150
-0.99838775 4.45983744 23.93218422 85 82 79
-2.54201245 -1.66398716 34.55904770 251 249 243
-0.12678744 -0.83725119 21.55085373 94 92 95
1.67424643 6.39253426 19.33334160 78 62 66
-3.92553830 -0.05920216 33.06146240 248 246 237
5.76002455 6.01973391 20.12975311 33 25 35
1.67424643 6.39253426 19.33334160 78 62 66
6.77900648 3.69120455 28.56695938 232 221 215
1.90040040 6.03527498 20.71131897 94 79 86
0.72985888 4.35911512 22.44911766 196 195 193
4.47806883 6.17969704 19.93054390 53 42 50
1.99846435 6.52583599 18.90262222 188 177 175
-4.82425928 2.76667428 31.94069481 140 137 128
2.95113969 5.42679453 22.98142815 177 164 147
-1.08867872 4.54387903 24.01676750 86 82 83
7.79871893 4.38975716 25.37018585 18 5 6
7.79871893 4.38975716 25.37018585 18 5 6
0.15283783 4.91577959 21.80393028 108 105 106
2.62736011 5.12331343 24.49015236 86 82 81
-6.38864040 4.63860226 30.57364273 57 57 60
-4.54489851 -1.38633871 32.45830154 244 240 231
-5.47356176 4.39086008 31.48401833 164 163 163
3.04468441 5.00486708 24.83066368 32 26 27
7.30664015 2.71240640 28.84781265 60 61 66
0.24137275 4.88222075 21.87157249 87 83 84
0.24137275 4.88222075 21.87157249 87 83 84
3.16202784 3.80365324 25.90604019 158 157 161
-2.84026551 -3.16822886 33.91564178 228 226 216
3.63089514 4.74979162 25.14590836 63 57 56
-5.05698156 4.02433205 32.38309097 172 168 159
-2.98854303 3.31187487 34.35502625 226 221 212
-1.24137950 5.64459562 24.44122505 136 130 133
1.40639532 6.92093039 18.67301941 39 28 32
0.28634915 0.22173175 20.51872826 128 131 135
0.28634915 0.22173175 20.51872826 128 131 135
2.07929754 6.61253738 18.51474190 189 174 174
8.73624992 2.29210663 29.80673218 162 161 166
-0.57620186 4.79035521 22.82187843 58 57 61
-2.12468147 6.54663515 26.82867241 58 38 37
1.49745131 6.58389282 18.57408905 181 170 168
4.04149008 6.32572556 19.66022491 71 63 67
-5.08618546 0.05921922 31.57510948 255 254 247
-4.22948885 -3.14655280 32.86287308 238 235 230
4.04149008 6.32572556 19.66022491 71 63 67
1.35974300 6.90047884 18.74165916 148 142 141
6.20495272 5.01931334 23.49220848 72 67 75
1.35974300 6.90047884 18.74165916 148 142 141
7.58977652 2.91588545 29.02692604 94 94 96
7.58977652 2.91588545 29.02692604 94 94 96
0.79439932 0.69309556 20.93515968 14 9 6
0.62385792 -0.71307832 21.13947487 80 79 84
2.69571567 6.83390713 17.60784721 73 66 69
-4.55172110 0.24613540 32.27735901 153 151 140
-1.18028975 5.66235113 24.24550819 161 156 161
5.27373648 4.40612316 26.44263268 71 63 64
-4.80252504 -0.89938200 31.94657516 243 241 234
6.25436783 2.57697248 27.82876205 167 172 188
4.66352510 6.64447880 18.01713943 101 100 112
3.55492592 -0.13688114 24.83830833 17 15 16
1.30881405 -0.13829318 21.41189575 121 122 123
-3.33476233 3.25682831 33.79994202 128 124 115
3.36768627 3.31597590 26.16606903 185 190 201
4.76273298 4.73990679 25.38353539 146 144 147
-1.36815333 4.73228073 24.06061935 185 186 188
-1.36815333 4.73228073 24.06061935 185 186 188
-3.68976688 -3.15153289 33.38777924 235 232 225
1.37572622 0.33848310 21.19718933 128 129 134
2.45220613 4.60586309 25.16932106 120 116 115
